<svg version="1.1" viewBox="0.0 0.0 945.2677165354331 374.38057742782155" fill="none" stroke="none" stroke-linecap="square" stroke-miterlimit="10" xmlns:xlink="http://www.w3.org/1999/xlink" xmlns="http://www.w3.org/2000/svg"><clipPath id="p.0"><path d="m0 0l945.2677 0l0 374.38058l-945.2677 0l0 -374.38058z" clip-rule="nonzero"/></clipPath><g clip-path="url(#p.0)"><path fill="#000000" fill-opacity="0.0" d="m0 0l945.2677 0l0 374.38058l-945.2677 0z" fill-rule="evenodd"/><path fill="#ffffff" d="m0 157.07086l182.07874 0l0 58.33072l-182.07874 0z" fill-rule="evenodd"/><path fill="#ffffff" d="m182.08398 157.07086l58.33072 0l0 215.40158l-58.33072 0z" fill-rule="evenodd"/><path fill="#ffffff" d="m182.08398 314.14172l207.08661 0l0 58.33072l-207.08661 0z" fill-rule="evenodd"/><path fill="#ffffff" d="m372.5092 157.07086l58.33072 0l0 215.40158l-58.33072 0z" fill-rule="evenodd"/><path fill="#ffffff" d="m372.5092 157.07086l190.4252 0l0 58.33072l-190.4252 0z" fill-rule="evenodd"/><path fill="#ffffff" d="m504.60367 0l58.33072 0l0 215.40158l-58.33072 0z" fill-rule="evenodd"/><path fill="#ffffff" d="m504.60367 0l200.50394 0l0 58.330708l-200.50394 0z" fill-rule="evenodd"/><path fill="#ffffff" d="m695.0289 157.07086l267.33856 0l0 58.33072l-267.33856 0z" fill-rule="evenodd"/><path stroke="#ffffff" stroke-width="1.0" stroke-linejoin="round" stroke-linecap="butt" d="m695.0289 157.07086l267.33856 0l0 58.33072l-267.33856 0z" fill-rule="evenodd"/><path fill="#ffffff" d="m695.0289 0l58.33069 0l0 215.40158l-58.33069 0z" fill-rule="evenodd"/><path fill="#00ffff" d="m924.69293 156.48032l38.236206 0l0 59.307083l-38.236206 0z" fill-rule="evenodd"/></g></svg>